<?xml version="1.0" standalone="no"?>
<!DOCTYPE svg PUBLIC "-//W3C//DTD SVG 20010904//EN"
 "http://www.w3.org/TR/2001/REC-SVG-20010904/DTD/svg10.dtd">
<svg version="1.0" xmlns="http://www.w3.org/2000/svg"
 width="512.000000pt" height="512.000000pt" viewBox="0 0 512.000000 512.000000"
 preserveAspectRatio="xMidYMid meet">
<metadata>
Created by potrace 1.11, written by Peter Selinger 2001-2013
</metadata>
<g transform="translate(0.000000,512.000000) scale(0.100000,-0.100000)"
fill="#000000" stroke="none">
<path d="M2368 5115 c-1 -1 -37 -5 -78 -9 -186 -16 -513 -93 -624 -147 -22
-10 -44 -19 -48 -19 -27 0 -289 -132 -407 -205 -539 -333 -940 -865 -1115
-1480 -14 -49 -27 -102 -30 -118 -3 -15 -7 -35 -10 -45 -3 -9 -7 -34 -11 -56
-3 -21 -7 -41 -9 -45 -4 -6 -12 -72 -26 -201 -8 -85 -5 -454 4 -515 4 -22 13
-80 21 -130 143 -882 745 -1630 1580 -1963 198 -79 419 -137 605 -158 30 -3
77 -10 103 -14 48 -7 471 -5 517 4 14 2 45 7 70 10 25 4 92 16 150 27 58 12
115 23 128 25 37 7 320 103 370 125 166 74 335 169 472 264 l75 52 290 1 c160
0 296 1 303 1 9 1 12 73 12 326 l0 325 39 64 c160 260 287 605 337 906 38 235
40 573 5 805 -74 487 -299 962 -626 1324 -199 219 -430 402 -693 545 -56 31
-104 56 -106 56 -2 0 -42 17 -88 39 -207 97 -490 171 -763 200 -74 8 -439 13
-447 6z"/>
</g>
</svg>
